#!OML:ASF H:\GeneralSubjects\Female5\Project 1\Capture day 1\Session 1\Female5.ASF
:FULLY-SPECIFIED
:DEGREES
21
root -14.4353 16.2035 3.09361 -169.249 -3.19068 -176.568
lowerback 6.03569 2.92786 3.44297
upperback -10.2919 3.73185 0.731476
thorax -14.5373 1.08993 -1.69891
lowerneck -18.2307 2.00925 1.64889
upperneck 34.9787 0.955176 -2.55122
head 15.3514 -0.644568 -1.44169
rclavicle 7.56624e-015 3.12092e-014
rhumerus -50.6467 23.0188 -91.36
rradius 33.4466
rwrist -0.795378
rhand -25.3302 -19.5979
rfingers 7.12502
rthumb 1.19263 -49.5743
lclavicle 7.56624e-015 3.12092e-014
lhumerus -47.8263 -1.22129 78.8273
lradius 34.1608
lwrist -3.48188
lhand -26.0509 33.6205
lfingers 7.12502
lthumb 0.496559 63.5996
rfemur 4.62081 36.4339 36.4537
rtibia -10.7395
rfoot -40.2725 -37.3539
rtoes 17.911
lfemur -2.11843 -36.8681 -25.5547
ltibia -1.93369
lfoot -33.892 9.10494
ltoes -37.2429
22
root -14.4377 16.2029 3.10216 -169.169 -3.21183 -176.614
lowerback 5.99795 2.94241 3.56998
upperback -10.2905 3.75483 0.611
thorax -14.4931 1.08054 -1.90498
lowerneck -18.0749 2.00737 1.83644
upperneck 34.8596 0.974898 -2.77305
head 15.2619 -0.639331 -1.56
rclavicle -4.87519e-014 -1.67973e-014
rhumerus -50.5951 22.5775 -91.2087
rradius 33.0733
rwrist -0.51446
rhand -25.1725 -19.3132
rfingers 7.12502
rthumb 1.34495 -49.2887
lclavicle -4.87519e-014 -1.67973e-014
lhumerus -47.9278 -1.27362 78.9103
lradius 34.3729
lwrist -3.30382
lhand -25.8509 33.7046
lfingers 7.12502
lthumb 0.689711 63.6833
rfemur 4.35259 36.413 36.2132
rtibia -10.6737
rfoot -40.2891 -37.3498
rtoes 18.054
lfemur -2.41037 -36.8409 -25.5208
ltibia -1.70054
lfoot -33.7625 9.29068
ltoes -37.8503
23
root -14.4372 16.2009 3.11068 -169.15 -3.22165 -176.738
lowerback 6.06558 2.93722 3.51923
upperback -10.3022 3.73574 0.500289
thorax -14.5465 1.06901 -2.00015
lowerneck -18.0666 2.02899 2.10802
upperneck 34.9138 0.979246 -2.99375
head 15.2908 -0.637248 -1.70323
rclavicle 1.89218e-014 9.14409e-015
rhumerus -50.6703 22.1769 -91.1044
rradius 32.8434
rwrist -0.150052
rhand -25.1394 -19.2867
rfingers 7.12502
rthumb 1.37697 -49.262
lclavicle 1.89218e-014 9.14409e-015
lhumerus -48.0853 -1.27075 78.9828
lradius 34.5252
lwrist -3.40611
lhand -25.6047 33.7553
lfingers 7.12502
lthumb 0.927581 63.733
rfemur 4.19112 36.3651 35.9178
rtibia -10.6514
rfoot -40.4507 -37.1428
rtoes 18.6309
lfemur -2.60878 -36.6349 -25.6194
ltibia -1.53714
lfoot -33.6675 9.16894
ltoes -37.5874
24
root -14.4355 16.1961 3.1208 -169.197 -3.23886 -176.861
lowerback 6.20624 2.92828 3.41204
upperback -10.3065 3.71576 0.444608
thorax -14.6457 1.06668 -2.00683
lowerneck -17.9601 2.02885 2.10447
upperneck 34.9192 0.957054 -2.96033
head 15.2674 -0.646079 -1.69286
rclavicle -2.08972e-014 -1.48095e-014
rhumerus -50.8374 22.0606 -91.1219
rradius 32.7397
rwrist -0.0803429
rhand -25.1825 -19.4178
rfingers 7.12502
rthumb 1.33531 -49.3933
lclavicle -2.08972e-014 -1.48095e-014
lhumerus -48.2707 -1.2923 79.101
lradius 34.696
lwrist -3.54903
lhand -25.4463 33.5667
lfingers 7.12502
lthumb 1.08052 63.5437
rfemur 4.02291 36.3121 35.6969
rtibia -10.4164
rfoot -40.3881 -37.0781
rtoes 18.3704
lfemur -2.75879 -36.0704 -25.7333
ltibia -1.42826
lfoot -33.3347 8.77438
ltoes -36.3033
25
root -14.4217 16.1907 3.1229 -169.262 -3.14301 -176.905
lowerback 6.24447 2.98249 3.20225
upperback -10.2759 3.7703 0.442164
thorax -14.643 1.11909 -1.9053
lowerneck -17.8772 1.98196 2.0208
upperneck 34.8762 0.898459 -2.90982
head 15.224 -0.673947 -1.66515
rclavicle 1.58966e-014 -6.5102e-015
rhumerus -51.0003 22.0117 -91.1338
rradius 32.6487
rwrist -0.0722651
rhand -25.1042 -19.2621
rfingers 7.12502
rthumb 1.41093 -49.2372
lclavicle 1.58966e-014 -6.5102e-015
lhumerus -48.3922 -1.45198 79.2729
lradius 34.8862
lwrist -3.53813
lhand -25.3408 33.5347
lfingers 7.12502
lthumb 1.18246 63.5112
rfemur 3.96111 36.4157 35.7563
rtibia -10.0903
rfoot -40.3675 -37.0491
rtoes 18.0439
lfemur -2.6822 -35.8471 -25.7709
ltibia -1.47227
lfoot -33.2216 8.54633
ltoes -35.3959
26
root -14.379 16.1865 3.11104 -169.358 -2.82707 -176.898
lowerback 6.13459 3.09238 2.56623
upperback -10.1975 3.85101 0.543647
thorax -14.5233 1.2432 -1.44912
lowerneck -17.8633 1.94967 1.91776
upperneck 34.8596 0.853316 -2.81519
head 15.2096 -0.692063 -1.6142
rclavicle -3.64832e-014 -1.963e-014
rhumerus -51.1663 21.9624 -91.1021
rradius 32.6157
rwrist 0.0604996
rhand -24.9469 -19.3055
rfingers 7.12502
rthumb 1.56285 -49.2795
lclavicle -3.64832e-014 -1.963e-014
lhumerus -48.5095 -1.53918 79.4171
lradius 35.109
lwrist -3.52587
lhand -25.1397 33.7549
lfingers 7.12502
lthumb 1.37664 63.7302
rfemur 4.19707 36.7907 36.2328
rtibia -9.82951
rfoot -40.3172 -37.2488
rtoes 17.6142
lfemur -2.23972 -35.6054 -25.7074
ltibia -1.84383
lfoot -33.162 8.43266
ltoes -35.5089
27
root -14.3765 16.1835 3.10941 -169.51 -3.15954 -176.852
lowerback 6.18318 2.94458 2.68025
upperback -10.1316 3.67972 0.569403
thorax -14.476 1.15883 -1.45558
lowerneck -17.8036 1.95799 1.85591
upperneck 34.8018 0.853567 -2.70857
head 15.1668 -0.682722 -1.55566
rclavicle -1.85739e-014 2.5842e-015
rhumerus -51.1812 21.8026 -90.9131
rradius 32.4776
rwrist 0.354502
rhand -24.7101 -19.5657
rfingers 7.12502
rthumb 1.79154 -49.5379
lclavicle -1.85739e-014 2.5842e-015
lhumerus -48.6377 -1.49786 79.4982
lradius 35.2955
lwrist -3.47174
lhand -25.1955 33.8058
lfingers 7.12502
lthumb 1.32277 63.7814
rfemur 4.45598 36.4511 36.461
rtibia -9.96311
rfoot -40.0276 -37.5905
rtoes 16.8373
lfemur -2.32704 -35.1049 -25.6432
ltibia -1.59817
lfoot -32.3929 8.0598
ltoes -35.6142
28
root -14.3654 16.1814 3.10665 -169.664 -3.26139 -176.61
lowerback 6.24272 2.87614 2.76836
upperback -10.0784 3.61886 0.671805
thorax -14.4545 1.13198 -1.383
lowerneck -17.8302 1.9937 1.9456
upperneck 34.8365 0.86462 -2.69245
head 15.1908 -0.665392 -1.56429
rclavicle 5.93869e-014 2.89729e-014
rhumerus -50.9763 21.413 -90.5584
rradius 32.125
rwrist 0.743315
rhand -24.5515 -19.4103
rfingers 7.12502
rthumb 1.94471 -49.3812
lclavicle 5.93869e-014 2.89729e-014
lhumerus -48.6662 -1.4392 79.4838
lradius 35.2863
lwrist -3.45196
lhand -25.4448 33.606
lfingers 7.12502
lthumb 1.08198 63.5831
rfemur 4.6628 36.3673 36.8827
rtibia -9.94837
rfoot -39.9667 -37.5212
rtoes 16.9279
lfemur -2.18108 -34.7072 -25.4268
ltibia -1.50014
lfoot -32.3133 7.68573
ltoes -35.4259
29
root -14.3456 16.1807 3.10294 -169.807 -3.16457 -176.476
lowerback 6.29621 2.90209 2.618
upperback -10.0197 3.65359 0.742497
thorax -14.4315 1.175 -1.23041
lowerneck -17.9177 1.99432 1.98623
upperneck 34.9283 0.821402 -2.63926
head 15.2538 -0.673679 -1.56071
rclavicle 1.76421e-014 2.10712e-014
rhumerus -50.8383 21.0423 -90.2873
rradius 31.859
rwrist 0.87229
rhand -24.6213 -19.0947
rfingers 7.12502
rthumb 1.87728 -49.0662
lclavicle 1.76421e-014 2.10712e-014
lhumerus -48.6184 -1.31987 79.394
lradius 35.2232
lwrist -3.49436
lhand -25.3544 33.388
lfingers 7.12502
lthumb 1.16926 63.3645
rfemur 4.80008 36.4806 37.2364
rtibia -9.71171
rfoot -40.4368 -37.0149
rtoes 18.0093
lfemur -1.90364 -34.4838 -25.3094
ltibia -1.62826
lfoot -32.4583 7.42219
ltoes -34.3706
30
root -14.3338 16.1799 3.1014 -169.887 -3.09641 -176.475
lowerback 6.3158 2.93282 2.47932
upperback -9.98401 3.68532 0.753524
thorax -14.4096 1.20956 -1.14819
lowerneck -17.9403 1.96806 1.87612
upperneck 35.001 0.763479 -2.51811
head 15.2903 -0.699755 -1.50373
rclavicle 1.66544e-014 -1.68967e-015
rhumerus -50.835 20.8354 -90.0938
rradius 31.7223
rwrist 0.854453
rhand -24.6716 -18.7344
rfingers 7.12502
rthumb 1.82874 -48.7063
lclavicle 1.66544e-014 -1.68967e-015
lhumerus -48.6221 -1.05504 79.2497
lradius 35.2622
lwrist -3.59322
lhand -25.1078 33.3683
lfingers 7.12502
lthumb 1.4075 63.3434
rfemur 4.75449 36.5629 37.3627
rtibia -9.33195
rfoot -40.9587 -36.5098
rtoes 18.9161
lfemur -1.87451 -34.1038 -25.2736
ltibia -1.59396
lfoot -32.1864 7.07513
ltoes -33.025
31
root -14.3364 16.1787 3.10367 -169.895 -3.15478 -176.448
lowerback 6.30848 2.90272 2.55589
upperback -9.98787 3.65305 0.754751
thorax -14.4058 1.18567 -1.18301
lowerneck -18.0053 1.97789 1.80961
upperneck 35.1391 0.739202 -2.41045
head 15.3702 -0.711657 -1.45708
rclavicle 1.37783e-014 1.44367e-014
rhumerus -50.8178 20.7125 -89.8945
rradius 31.5529
rwrist 0.941116
rhand -24.6308 -18.3372
rfingers 7.12502
rthumb 1.86814 -48.3088
lclavicle 1.37783e-014 1.44367e-014
lhumerus -48.7003 -0.861456 79.1547
lradius 35.3506
lwrist -3.59123
lhand -25.1383 33.644
lfingers 7.12502
lthumb 1.37802 63.6193
rfemur 4.56133 36.5092 37.2833
rtibia -9.08831
rfoot -41.0798 -36.2662
rtoes 19.0374
lfemur -2.1459 -33.7331 -25.1956
ltibia -1.27254
lfoot -31.79 6.74418
ltoes -32.6813
32
root -14.3502 16.1754 3.11128 -169.852 -3.28588 -176.554
lowerback 6.3232 2.83046 2.62183
upperback -10.019 3.55671 0.726674
thorax -14.45 1.128 -1.23393
lowerneck -17.99 2.00052 1.79191
upperneck 35.1669 0.749668 -2.35194
head 15.3799 -0.704392 -1.42872
rclavicle -2.61278e-014 -4.42296e-015
rhumerus -50.7809 20.6947 -89.7328
rradius 31.4051
rwrist 0.924219
rhand -24.6861 -18.4249
rfingers 7.12502
rthumb 1.81469 -48.3969
lclavicle -2.61278e-014 -4.42296e-015
lhumerus -48.7895 -0.805997 79.1841
lradius 35.4155
lwrist -3.38104
lhand -25.2349 33.8448
lfingers 7.12502
lthumb 1.28466 63.8207
rfemur 4.24908 36.3409 36.8254
rtibia -8.98428
rfoot -41.0116 -36.1918
rtoes 18.8478
lfemur -2.56568 -33.5721 -25.2936
ltibia -0.833466
lfoot -31.5045 6.57509
ltoes -32.9748
33
root -14.3286 16.1787 3.1013 -169.986 -3.16588 -176.682
lowerback 6.30389 2.86923 2.14761
upperback -9.96166 3.55859 0.760188
thorax -14.4008 1.18888 -0.933629
lowerneck -17.9411 1.97356 1.738
upperneck 35.1719 0.685954 -2.25454
head 15.3679 -0.726306 -1.3897
rclavicle 1.54058e-014 1.93815e-014
rhumerus -50.7165 20.5079 -89.5619
rradius 31.2572
rwrist 0.943268
rhand -24.7082 -18.4613
rfingers 7.12502
rthumb 1.79335 -48.4335
lclavicle 1.54058e-014 1.93815e-014
lhumerus -48.7639 -0.86028 79.1957
lradius 35.3812
lwrist -3.17988
lhand -25.3979 33.6934
lfingers 7.12502
lthumb 1.12731 63.6701
rfemur 4.45008 36.4237 36.8826
rtibia -8.87459
rfoot -41.1514 -36.1344
rtoes 19.1041
lfemur -2.25957 -33.2983 -25.4666
ltibia -0.950819
lfoot -31.4213 6.42388
ltoes -33.2623
34
root -14.324 16.1796 3.09729 -170.036 -3.17725 -176.601
lowerback 6.24307 2.92205 2.2629
upperback -9.94815 3.64003 0.712322
thorax -14.3322 1.21397 -1.06226
lowerneck -18.622 1.77068 2.9561
upperneck 35.441 0.439389 -3.61783
head 15.6659 -0.859945 -2.24724
rclavicle 1.35267e-014 2.48481e-015
rhumerus -50.7145 20.0656 -89.4089
rradius 31.1538
rwrist 1.18875
rhand -24.5841 -18.2376
rfingers 7.12502
rthumb 1.91322 -48.2088
lclavicle 1.35267e-014 2.48481e-015
lhumerus -48.687 -0.941805 79.066
lradius 35.2801
lwrist -3.2087
lhand -25.6443 33.3186
lfingers 7.12502
lthumb 0.889262 63.2965
rfemur 4.4694 36.3954 36.9151
rtibia -8.89786
rfoot -41.2336 -36.0515
rtoes 19.4655
lfemur -2.2639 -33.1131 -25.373
ltibia -0.862482
lfoot -31.2279 6.31408
ltoes -33.5096
